<mxfile host="Electron" modified="2023-12-26T15:27:51.149Z" agent="Mozilla/5.0 (Windows NT 10.0; Win64; x64) AppleWebKit/537.36 (KHTML, like Gecko) draw.io/22.1.11 Chrome/114.0.5735.289 Electron/25.9.8 Safari/537.36" etag="NmgXLArauIpEHp6pPLN0" version="22.1.11" type="device">
  <diagram name="Page-1" id="e7e014a7-5840-1c2e-5031-d8a46d1fe8dd">
    <mxGraphModel dx="1151" dy="673" grid="1" gridSize="10" guides="1" tooltips="1" connect="1" arrows="1" fold="1" page="1" pageScale="1" pageWidth="1169" pageHeight="827" background="none" math="0" shadow="0">
      <root>
        <mxCell id="0" />
        <mxCell id="1" parent="0" />
        <mxCell id="2" value="Manager" style="swimlane;whiteSpace=wrap" parent="1" vertex="1">
          <mxGeometry x="164.5" y="128" width="280" height="642" as="geometry" />
        </mxCell>
        <mxCell id="5" value="" style="ellipse;shape=startState;fillColor=#000000;strokeColor=#000000;" parent="2" vertex="1">
          <mxGeometry x="100" y="40" width="30" height="30" as="geometry" />
        </mxCell>
        <mxCell id="6" value="" style="edgeStyle=elbowEdgeStyle;elbow=horizontal;verticalAlign=bottom;endArrow=open;endSize=8;strokeColor=#000000;endFill=1;rounded=0" parent="2" source="5" target="7" edge="1">
          <mxGeometry x="100" y="40" as="geometry">
            <mxPoint x="115" y="110" as="targetPoint" />
          </mxGeometry>
        </mxCell>
        <mxCell id="7" value="Login" style="strokeColor=#000000;" parent="2" vertex="1">
          <mxGeometry x="60" y="110" width="110" height="50" as="geometry" />
        </mxCell>
        <mxCell id="10" value="Check product quantity" style="strokeColor=#000000;" parent="2" vertex="1">
          <mxGeometry x="35" y="232" width="140" height="50" as="geometry" />
        </mxCell>
        <mxCell id="WVf5S07idf13oQcc_sT_-57" value="monitor daily sell" style="rounded=0;whiteSpace=wrap;html=1;" parent="2" vertex="1">
          <mxGeometry x="25" y="352" width="140" height="38" as="geometry" />
        </mxCell>
        <mxCell id="WVf5S07idf13oQcc_sT_-64" style="edgeStyle=orthogonalEdgeStyle;rounded=0;orthogonalLoop=1;jettySize=auto;html=1;exitX=0.5;exitY=1;exitDx=0;exitDy=0;entryX=0.5;entryY=0;entryDx=0;entryDy=0;" parent="2" source="WVf5S07idf13oQcc_sT_-61" target="WVf5S07idf13oQcc_sT_-63" edge="1">
          <mxGeometry relative="1" as="geometry" />
        </mxCell>
        <mxCell id="WVf5S07idf13oQcc_sT_-61" value="Evaluate production per sell" style="rounded=0;whiteSpace=wrap;html=1;" parent="2" vertex="1">
          <mxGeometry x="30" y="452" width="140" height="38" as="geometry" />
        </mxCell>
        <mxCell id="WVf5S07idf13oQcc_sT_-65" style="edgeStyle=orthogonalEdgeStyle;rounded=0;orthogonalLoop=1;jettySize=auto;html=1;exitX=0.5;exitY=1;exitDx=0;exitDy=0;" parent="2" source="WVf5S07idf13oQcc_sT_-66" edge="1">
          <mxGeometry relative="1" as="geometry">
            <mxPoint x="99.92857142857144" y="622" as="targetPoint" />
          </mxGeometry>
        </mxCell>
        <mxCell id="WVf5S07idf13oQcc_sT_-63" value="Save analyzed data" style="rounded=0;whiteSpace=wrap;html=1;" parent="2" vertex="1">
          <mxGeometry x="35" y="522" width="130" height="38" as="geometry" />
        </mxCell>
        <mxCell id="WVf5S07idf13oQcc_sT_-68" value="" style="edgeStyle=orthogonalEdgeStyle;rounded=0;orthogonalLoop=1;jettySize=auto;html=1;exitX=0.5;exitY=1;exitDx=0;exitDy=0;" parent="2" source="WVf5S07idf13oQcc_sT_-63" target="WVf5S07idf13oQcc_sT_-66" edge="1">
          <mxGeometry relative="1" as="geometry">
            <mxPoint x="264.42857142857144" y="750" as="targetPoint" />
            <mxPoint x="264.5" y="688" as="sourcePoint" />
          </mxGeometry>
        </mxCell>
        <mxCell id="WVf5S07idf13oQcc_sT_-66" value="" style="ellipse;html=1;shape=endState;fillColor=#000000;strokeColor=#000000;" parent="2" vertex="1">
          <mxGeometry x="85" y="592" width="30" height="30" as="geometry" />
        </mxCell>
        <mxCell id="3" value="System" style="swimlane;whiteSpace=wrap" parent="1" vertex="1">
          <mxGeometry x="445" y="128" width="280" height="642" as="geometry" />
        </mxCell>
        <mxCell id="WVf5S07idf13oQcc_sT_-51" style="edgeStyle=orthogonalEdgeStyle;rounded=0;orthogonalLoop=1;jettySize=auto;html=1;exitX=0.5;exitY=1;exitDx=0;exitDy=0;entryX=0.5;entryY=0;entryDx=0;entryDy=0;" parent="3" source="WVf5S07idf13oQcc_sT_-46" target="8" edge="1">
          <mxGeometry relative="1" as="geometry" />
        </mxCell>
        <mxCell id="WVf5S07idf13oQcc_sT_-46" value="Check account" style="rhombus;whiteSpace=wrap;html=1;" parent="3" vertex="1">
          <mxGeometry x="85" y="97.5" width="84.5" height="75" as="geometry" />
        </mxCell>
        <mxCell id="8" value="Display dashboard" style="strokeColor=#000000;" parent="3" vertex="1">
          <mxGeometry x="72.25" y="212" width="110" height="50" as="geometry" />
        </mxCell>
        <mxCell id="WVf5S07idf13oQcc_sT_-52" value="If true" style="text;html=1;strokeColor=none;fillColor=none;align=center;verticalAlign=middle;whiteSpace=wrap;rounded=0;" parent="3" vertex="1">
          <mxGeometry x="155" y="172" width="60" height="30" as="geometry" />
        </mxCell>
        <mxCell id="WVf5S07idf13oQcc_sT_-55" value="Show remaining product" style="rounded=0;whiteSpace=wrap;html=1;" parent="3" vertex="1">
          <mxGeometry x="72.25" y="292" width="129.5" height="48" as="geometry" />
        </mxCell>
        <mxCell id="WVf5S07idf13oQcc_sT_-59" value="Display remaining record" style="rounded=0;whiteSpace=wrap;html=1;" parent="3" vertex="1">
          <mxGeometry x="64.5" y="390" width="145" height="48" as="geometry" />
        </mxCell>
        <mxCell id="WVf5S07idf13oQcc_sT_-50" style="edgeStyle=orthogonalEdgeStyle;rounded=0;orthogonalLoop=1;jettySize=auto;html=1;exitX=1;exitY=0.5;exitDx=0;exitDy=0;entryX=0;entryY=0.5;entryDx=0;entryDy=0;" parent="1" source="7" target="WVf5S07idf13oQcc_sT_-46" edge="1">
          <mxGeometry relative="1" as="geometry" />
        </mxCell>
        <mxCell id="WVf5S07idf13oQcc_sT_-54" style="edgeStyle=orthogonalEdgeStyle;rounded=0;orthogonalLoop=1;jettySize=auto;html=1;exitX=0;exitY=0.5;exitDx=0;exitDy=0;" parent="1" source="8" target="10" edge="1">
          <mxGeometry relative="1" as="geometry" />
        </mxCell>
        <mxCell id="WVf5S07idf13oQcc_sT_-56" style="edgeStyle=orthogonalEdgeStyle;rounded=0;orthogonalLoop=1;jettySize=auto;html=1;exitX=1;exitY=0.75;exitDx=0;exitDy=0;entryX=0;entryY=0.5;entryDx=0;entryDy=0;" parent="1" source="10" target="WVf5S07idf13oQcc_sT_-55" edge="1">
          <mxGeometry relative="1" as="geometry" />
        </mxCell>
        <mxCell id="WVf5S07idf13oQcc_sT_-58" style="edgeStyle=orthogonalEdgeStyle;rounded=0;orthogonalLoop=1;jettySize=auto;html=1;exitX=0;exitY=0.75;exitDx=0;exitDy=0;entryX=0.989;entryY=0.605;entryDx=0;entryDy=0;entryPerimeter=0;" parent="1" source="WVf5S07idf13oQcc_sT_-55" target="WVf5S07idf13oQcc_sT_-57" edge="1">
          <mxGeometry relative="1" as="geometry" />
        </mxCell>
        <mxCell id="WVf5S07idf13oQcc_sT_-60" style="edgeStyle=orthogonalEdgeStyle;rounded=0;orthogonalLoop=1;jettySize=auto;html=1;exitX=1;exitY=1;exitDx=0;exitDy=0;entryX=0;entryY=0.5;entryDx=0;entryDy=0;" parent="1" source="WVf5S07idf13oQcc_sT_-57" target="WVf5S07idf13oQcc_sT_-59" edge="1">
          <mxGeometry relative="1" as="geometry" />
        </mxCell>
        <mxCell id="WVf5S07idf13oQcc_sT_-62" style="edgeStyle=orthogonalEdgeStyle;rounded=0;orthogonalLoop=1;jettySize=auto;html=1;exitX=0;exitY=1;exitDx=0;exitDy=0;entryX=1;entryY=0.5;entryDx=0;entryDy=0;" parent="1" source="WVf5S07idf13oQcc_sT_-59" target="WVf5S07idf13oQcc_sT_-61" edge="1">
          <mxGeometry relative="1" as="geometry" />
        </mxCell>
      </root>
    </mxGraphModel>
  </diagram>
</mxfile>
